<?xml version="1.0" encoding="utf-8"?>
<!-- Generator: Adobe Illustrator 18.1.1, SVG Export Plug-In . SVG Version: 6.00 Build 0)  -->
<!DOCTYPE svg PUBLIC "-//W3C//DTD SVG 1.1//EN" "http://www.w3.org/Graphics/SVG/1.1/DTD/svg11.dtd">
<svg version="1.1" id="Layer_1" xmlns="http://www.w3.org/2000/svg" xmlns:xlink="http://www.w3.org/1999/xlink" x="0px" y="0px"
	 width="66.4px" height="67.5px" viewBox="-446 247.5 66.4 67.5" enable-background="new -446 247.5 66.4 67.5"
	 xml:space="preserve">
<g>
	<path fill="#512200" stroke="#512200" stroke-miterlimit="10" d="M-391.8,276.5c0.7,2.6,1.1,5.5,1.1,8.4c0,0.3,0,0.7,0,1l3.4,1.3
		l2.8-2.4l2.2,2.6l-4.3,3.5l-4.4-1.8c-0.5,3.9-1.7,7.6-3.4,10.7l0.6-0.8l3.3,1.9l3.2-1.9l1.8,2.9l-4.7,2.9l-5.2-3.1
		c-4.1,6.3-10.4,10.4-17.5,10.4s-13.4-4.1-17.5-10.4l-5.1,3l-4.7-2.9l1.8-2.9l3.2,1.9l3.3-1.9l0.2,0.3c-1.6-3-2.7-6.5-3.1-10.2
		l-4.3,1.7l-4.3-3.5l2.2-2.6l2.8,2.4l3.3-1.3c0-0.4,0-0.7,0-1.1c0-2.9,0.4-5.7,1.1-8.4l-5.6-0.2l-2.4-4.9l3-1.5l1.6,3.3l3.8,0.2
		l0.1,1.1c2.3-6.8,6.8-12.3,12.4-15c0.1-2.1,1.8-3.8,4-3.8h9.3c2.2,0,4,1.8,4,4c0,0.1,0,0.2,0,0.3c5.3,2.9,9.5,8.3,11.6,14.9
		l0.1-1.5l3.8-0.2l1.6-3.3l3,1.5l-2.4,4.9L-391.8,276.5z"/>
	<polygon fill="#512200" stroke="#512200" stroke-miterlimit="10" points="-401.6,252.2 -402,253.4 -402.8,253.7 -404.1,254.1 
		-405.4,254.8 -407,255.7 -407,254.8 -405.1,253.4 -403.8,253 -402.5,252.2 -401.9,250.8 -400.5,250.3 -400.9,251.6 	"/>
	<polygon fill="#512200" stroke="#512200" stroke-miterlimit="10" points="-420.8,254.1 -422.1,253.7 -422.9,253.4 -423.2,252.2 
		-424,251.6 -424.4,250.3 -423,250.8 -422.4,252.2 -421.1,253 -419.8,253.4 -417.9,254.8 -417.9,255.7 -419.5,254.8 	"/>
</g>
</svg>
